<?xml version="1.0" encoding="UTF-8"?>
<svg id="Layer_2" data-name="Layer 2" xmlns="http://www.w3.org/2000/svg" viewBox="0 0 247.46 360.32">
  <defs>
    <style>
      .cls-1 {
        fill: #fff;
      }
    </style>
  </defs>
  <g id="Layer_1-2" data-name="Layer 1">
    <g>
      <path class="cls-1" d="M0,0H34.31V38.24H0V0ZM0,75.55H34.31v199.84H0V75.55Z"/>
      <path class="cls-1" d="M196.92,82.67c6.35,4.38,12.82,10.75,19.42,19.12v-25.31h31.12v182.6c0,25.5-3.74,45.62-11.21,60.37-13.95,27.24-40.3,40.87-79.03,40.87-21.55,0-39.67-4.84-54.37-14.53-14.7-9.69-22.92-24.84-24.67-45.46h34.31c1.61,9,4.84,15.93,9.7,20.81,7.58,7.5,19.52,11.25,35.8,11.25,25.73,0,42.57-9.13,50.52-27.37,4.73-10.75,6.9-29.93,6.53-57.55-6.72,10.25-14.81,17.87-24.27,22.87-9.46,5-21.98,7.5-37.54,7.5-21.66,0-40.62-7.72-56.86-23.15-16.25-15.43-24.37-40.96-24.37-76.58,0-33.62,8.18-59.86,24.55-78.74,16.37-18.87,36.14-28.31,59.29-28.31,15.69,0,29.38,3.88,41.09,11.62Zm4.13,36.18c-10.19-12-23.19-18-38.98-18-23.62,0-39.79,11.12-48.49,33.37-4.6,11.87-6.9,27.43-6.9,46.68,0,22.62,4.57,39.84,13.71,51.65,9.14,11.81,21.42,17.72,36.84,17.72,24.12,0,41.09-10.93,50.92-32.81,5.47-12.37,8.21-26.81,8.21-43.31,0-24.87-5.1-43.31-15.29-55.3Z"/>
    </g>
  </g>
</svg>