<?xml version="1.0" encoding="UTF-8"?>
<svg id="Layer_2" data-name="Layer 2" xmlns="http://www.w3.org/2000/svg" viewBox="0 0 32.23 46.92">
  <defs>
    <style>
      .cls-1 {
        fill: #fff;
      }
    </style>
  </defs>
  <g id="Layer_1-2" data-name="Layer 1">
    <g>
      <path class="cls-1" d="M0,0H4.47V4.98H0V0ZM0,9.84H4.47v26.03H0V9.84Z"/>
      <path class="cls-1" d="M25.64,10.77c.83,.57,1.67,1.4,2.53,2.49v-3.3h4.05v23.78c0,3.32-.49,5.94-1.46,7.86-1.82,3.55-5.25,5.32-10.29,5.32-2.81,0-5.17-.63-7.08-1.89-1.91-1.26-2.99-3.23-3.21-5.92h4.47c.21,1.17,.63,2.08,1.26,2.71,.99,.98,2.54,1.46,4.66,1.46,3.35,0,5.54-1.19,6.58-3.56,.62-1.4,.9-3.9,.85-7.5-.88,1.33-1.93,2.33-3.16,2.98-1.23,.65-2.86,.98-4.89,.98-2.82,0-5.29-1-7.41-3.02-2.12-2.01-3.17-5.33-3.17-9.97,0-4.38,1.07-7.8,3.2-10.25,2.13-2.46,4.71-3.69,7.72-3.69,2.04,0,3.83,.5,5.35,1.51Zm.54,4.71c-1.33-1.56-3.02-2.34-5.08-2.34-3.08,0-5.18,1.45-6.31,4.35-.6,1.55-.9,3.57-.9,6.08,0,2.95,.6,5.19,1.79,6.73,1.19,1.54,2.79,2.31,4.8,2.31,3.14,0,5.35-1.42,6.63-4.27,.71-1.61,1.07-3.49,1.07-5.64,0-3.24-.66-5.64-1.99-7.2Z"/>
    </g>
  </g>
</svg>